<svg width="512" height="512" viewBox="0 0 512 512" fill="none" xmlns="http://www.w3.org/2000/svg">
<rect width="512" height="512" rx="115" fill="url(#paint0_linear_6_2)"/>
<g filter="url(#filter0_i_6_2)">
<path d="M278.856 168.746C282.905 164.875 288.292 162.735 293.881 162.777C299.471 162.82 304.825 165.042 308.815 168.973C312.804 172.905 315.117 178.24 315.264 183.852C315.412 189.464 313.383 194.914 309.606 199.052L194.94 343.081C192.968 345.214 190.588 346.926 187.943 348.114C185.297 349.302 182.441 349.942 179.543 349.996C176.646 350.05 173.767 349.517 171.08 348.428C168.392 347.339 165.951 345.717 163.902 343.659L87.8601 267.286C85.7425 265.304 84.044 262.914 82.8659 260.259C81.6879 257.603 81.0544 254.737 81.0034 251.83C80.9523 248.923 81.4847 246.036 82.5687 243.341C83.6528 240.645 85.2663 238.197 87.313 236.141C89.3597 234.085 91.7977 232.465 94.4815 231.376C97.1654 230.287 100.04 229.753 102.934 229.804C105.828 229.855 108.682 230.491 111.326 231.675C113.97 232.858 116.35 234.564 118.323 236.69L178.501 297.102L278.281 169.381C278.46 169.158 278.652 168.946 278.856 168.746ZM252.417 317.104L278.856 343.659C280.905 345.712 283.344 347.33 286.029 348.417C288.714 349.503 291.589 350.035 294.483 349.981C297.377 349.927 300.23 349.289 302.873 348.103C305.516 346.918 307.894 345.21 309.865 343.081L424.589 199.052C426.65 197.009 428.28 194.569 429.381 191.879C430.482 189.189 431.032 186.304 430.999 183.395C430.965 180.487 430.348 177.615 429.184 174.951C428.021 172.288 426.335 169.887 424.227 167.892C422.12 165.898 419.633 164.35 416.917 163.342C414.2 162.334 411.309 161.886 408.417 162.025C405.524 162.164 402.689 162.887 400.08 164.151C397.472 165.414 395.144 167.193 393.235 169.381L293.427 297.102L279.488 283.074L252.388 317.104H252.417Z" fill="white"/>
</g>
<defs>
<filter id="filter0_i_6_2" x="81" y="162" width="350" height="192" filterUnits="userSpaceOnUse" color-interpolation-filters="sRGB">
<feFlood flood-opacity="0" result="BackgroundImageFix"/>
<feBlend mode="normal" in="SourceGraphic" in2="BackgroundImageFix" result="shape"/>
<feColorMatrix in="SourceAlpha" type="matrix" values="0 0 0 0 0 0 0 0 0 0 0 0 0 0 0 0 0 0 127 0" result="hardAlpha"/>
<feOffset dy="4"/>
<feGaussianBlur stdDeviation="17.5"/>
<feComposite in2="hardAlpha" operator="arithmetic" k2="-1" k3="1"/>
<feColorMatrix type="matrix" values="0 0 0 0 0 0 0 0 0 0 0 0 0 0 0 0 0 0 0.34 0"/>
<feBlend mode="normal" in2="shape" result="effect1_innerShadow_6_2"/>
</filter>
<linearGradient id="paint0_linear_6_2" x1="512" y1="0" x2="0" y2="512" gradientUnits="userSpaceOnUse">
<stop stop-color="#8138DE"/>
<stop offset="1" stop-color="#113ACC"/>
</linearGradient>
</defs>
</svg>
